<svg width="84" height="88" viewBox="0 0 84 88" fill="none" xmlns="http://www.w3.org/2000/svg">
<ellipse cx="20.4372" cy="22.9156" rx="19.7009" ry="19.4966" fill="#0B100D"/>
<ellipse cx="63.988" cy="66.0135" rx="19.7009" ry="19.4966" fill="#0B100D"/>
<path d="M0.736328 46.5168H40.1381C40.1381 68.0522 22.6803 85.5101 1.14487 85.5101H0.736328V46.5168Z" fill="#0B100D"/>
<path d="M44.2871 43.6434C44.2871 22.108 61.745 4.65015 83.2804 4.65015H83.6889V43.6434H44.2871Z" fill="#0B100D"/>
<path d="M18.096 33.32C16.7307 33.32 15.5253 32.9893 14.48 32.328C13.456 31.6667 12.656 30.728 12.08 29.512C11.504 28.2747 11.216 26.824 11.216 25.16C11.216 23.4747 11.504 22.0347 12.08 20.84C12.656 19.624 13.456 18.6853 14.48 18.024C15.5253 17.3627 16.7307 17.032 18.096 17.032C19.3973 17.032 20.528 17.352 21.488 17.992C22.4693 18.632 23.1307 19.4747 23.472 20.52H23.12V12.2C23.12 11.5387 23.2907 11.0373 23.632 10.696C23.9733 10.3547 24.464 10.184 25.104 10.184C25.744 10.184 26.2347 10.3547 26.576 10.696C26.9387 11.0373 27.12 11.5387 27.12 12.2V31.208C27.12 31.8693 26.9493 32.3813 26.608 32.744C26.2667 33.0853 25.776 33.256 25.136 33.256C24.496 33.256 24.0053 33.0853 23.664 32.744C23.3227 32.3813 23.152 31.8693 23.152 31.208V28.712L23.504 29.672C23.184 30.7813 22.5333 31.6667 21.552 32.328C20.5707 32.9893 19.4187 33.32 18.096 33.32ZM19.216 30.28C20.0053 30.28 20.6987 30.088 21.296 29.704C21.8933 29.32 22.352 28.7547 22.672 28.008C23.0133 27.24 23.184 26.2907 23.184 25.16C23.184 23.4533 22.8213 22.184 22.096 21.352C21.3707 20.4987 20.4107 20.072 19.216 20.072C18.4267 20.072 17.7333 20.264 17.136 20.648C16.5387 21.0107 16.0693 21.576 15.728 22.344C15.408 23.0907 15.248 24.0293 15.248 25.16C15.248 26.8453 15.6107 28.1253 16.336 29C17.0613 29.8533 18.0213 30.28 19.216 30.28Z" fill="#FBFDFE"/>
<path d="M66.248 77.32C64.8613 77.32 63.6987 77.0853 62.76 76.616C61.8427 76.1467 61.16 75.464 60.712 74.568C60.264 73.6507 60.04 72.52 60.04 71.176V64.36H58.376C57.864 64.36 57.4693 64.232 57.192 63.976C56.9147 63.6987 56.776 63.3253 56.776 62.856C56.776 62.3653 56.9147 61.992 57.192 61.736C57.4693 61.48 57.864 61.352 58.376 61.352H60.04V58.44C60.04 57.7787 60.2107 57.2773 60.552 56.936C60.9147 56.5947 61.416 56.424 62.056 56.424C62.696 56.424 63.1867 56.5947 63.528 56.936C63.8693 57.2773 64.04 57.7787 64.04 58.44V61.352H67.432C67.944 61.352 68.3387 61.48 68.616 61.736C68.8933 61.992 69.032 62.3653 69.032 62.856C69.032 63.3253 68.8933 63.6987 68.616 63.976C68.3387 64.232 67.944 64.36 67.432 64.36H64.04V70.952C64.04 71.976 64.264 72.744 64.712 73.256C65.16 73.768 65.8853 74.024 66.888 74.024C67.2507 74.024 67.5707 73.992 67.848 73.928C68.1253 73.864 68.3707 73.8213 68.584 73.8C68.84 73.7787 69.0533 73.864 69.224 74.056C69.3947 74.2267 69.48 74.5893 69.48 75.144C69.48 75.5707 69.4053 75.9547 69.256 76.296C69.128 76.616 68.8827 76.84 68.52 76.968C68.2427 77.0533 67.88 77.128 67.432 77.192C66.984 77.2773 66.5893 77.32 66.248 77.32Z" fill="#FBFDFE"/>
</svg>
