<svg width="377" height="50" viewBox="0 0 377 50" fill="none" xmlns="http://www.w3.org/2000/svg">
<g clip-path="url(#clip0_145_2183)">
<path d="M19.309 31.4706C20.4364 32.9906 21.0226 34.4185 21.3833 35.4318C21.3833 35.4779 21.3833 35.4779 21.4284 35.5239C21.4284 35.4779 21.4284 35.4779 21.4735 35.4318C21.8342 34.4185 22.4204 32.9906 23.5477 31.4706C24.4947 30.2269 25.3514 29.3978 26.5689 28.3845C27.3806 27.6936 29.5451 26.1736 31.6644 24.6536C29.5451 23.1336 27.3806 21.6135 26.5689 20.9226C25.3064 19.8632 24.4496 19.0802 23.5477 17.8366C22.4204 16.3166 21.8342 14.8887 21.4735 13.8753C21.4735 13.8293 21.4735 13.8293 21.4284 13.7832C21.4284 13.8293 21.4284 13.8293 21.3833 13.8753C21.0226 14.8887 20.4364 16.3166 19.309 17.8366C18.3621 19.0802 17.5053 19.9093 16.2878 20.9226C15.4762 21.6135 13.3117 23.1336 11.1924 24.6536C13.3117 26.1736 15.4762 27.6936 16.2878 28.3845C17.5053 29.3978 18.3621 30.1809 19.309 31.4706Z" fill="#E97769"/>
<path d="M34.5954 0.471052C30.5371 -0.956834 23.9987 0.701357 21.3833 7.65654C18.813 0.701357 12.2746 -0.956834 8.21626 0.471052C4.24811 1.85288 0.6858 5.95229 0.730892 10.9729C0.730892 11.2493 0.730892 11.4796 0.775985 11.756C0.821077 12.1244 0.86617 12.5851 1.00145 13.1378C1.00145 13.1378 1.18182 13.8748 1.45237 14.6117C1.85821 15.6711 3.25608 18.5269 6.41256 21.0603C7.17913 21.7051 9.20829 23.133 11.2375 24.5609C13.3568 23.0409 15.5213 21.5209 16.3329 20.8299C17.5955 19.7705 18.4523 18.9875 19.3541 17.7439C20.4814 16.2239 21.0676 14.796 21.4284 13.7826C21.4284 13.7366 21.4284 13.7366 21.4735 13.6905C21.4735 13.7366 21.4735 13.7366 21.5186 13.7826C21.8793 14.796 22.4655 16.2239 23.5928 17.7439C24.5398 18.9875 25.3965 19.8166 26.614 20.8299C27.4257 21.5209 29.5901 23.0409 31.7095 24.5609C33.7387 23.0869 35.7678 21.659 36.5344 21.0603C39.6909 18.4808 41.0887 15.6711 41.4946 14.6117C41.7651 13.8748 41.9455 13.1378 41.9455 13.1378C42.0808 12.5851 42.1259 12.0784 42.171 11.756C42.2161 11.4796 42.2161 11.2032 42.2161 10.9729C42.1259 5.95229 38.5636 1.85288 34.5954 0.471052Z" fill="#F69780"/>
<path d="M41.8551 36.0774C41.8551 36.0774 41.6747 35.3404 41.4041 34.6034C40.9983 33.544 39.6004 30.6883 36.4439 28.1549C35.6774 27.5101 33.6482 26.0822 31.619 24.6543C29.4997 26.1743 27.3353 27.6943 26.5236 28.3852C25.261 29.4446 24.4042 30.2277 23.5024 31.4713C22.3751 32.9913 21.7889 34.4192 21.4281 35.4325C21.4281 35.4786 21.4281 35.4786 21.383 35.5247C21.383 35.4786 21.383 35.4786 21.3379 35.4325C20.9772 34.4192 20.391 32.9913 19.2637 31.4713C18.3167 30.2277 17.46 29.3986 16.2425 28.3852C15.4308 27.6943 13.2664 26.1743 11.147 24.6543C9.11786 26.1282 7.08869 27.5561 6.32212 28.1549C3.16564 30.7343 1.76777 33.544 1.36194 34.6034C1.09138 35.3404 0.91101 36.0774 0.91101 36.0774C0.775732 36.6301 0.730639 37.1368 0.685547 37.4592C0.730639 37.7356 0.730639 38.0119 0.730639 38.2883C0.685547 43.3089 4.24786 47.4084 8.216 48.7902C12.2743 50.2181 18.8128 48.5599 21.4281 41.6047C23.9984 48.5599 30.5819 50.2181 34.6402 48.7902C38.6084 47.4084 42.1707 43.3089 42.1256 38.2883C42.1256 38.0119 42.1256 37.7816 42.0805 37.5053C41.9903 37.1368 41.9452 36.6301 41.8551 36.0774Z" fill="#F69780"/>
<path d="M87.8633 25.3584C87.8633 30.4119 88.0585 39.9871 90.7926 42.0484C91.5087 42.6469 91.5087 43.8438 90.0114 43.8438H75.2345C74.5185 43.8438 74.2581 42.9129 74.9742 42.3144C77.4478 40.4526 77.9686 38.8567 77.9686 36.1305V27.0872H66.8371C66.9022 32.2738 67.423 40.1866 69.7664 42.0484C70.5476 42.6469 70.5476 43.8438 69.0504 43.8438H54.2735C53.5574 43.8438 53.297 42.9129 54.0131 42.3144C56.4868 40.4526 56.9424 38.8567 56.9424 36.1305V14.5863C56.9424 11.993 56.4868 10.3307 54.0131 8.40233C53.297 7.80388 53.5574 6.93945 54.2735 6.93945H69.0504C70.5476 6.93945 70.5476 8.06986 69.7664 8.6683C67.2277 10.7296 66.8371 19.9058 66.8371 25.0259H77.9686V14.5863C77.9686 11.993 77.4478 10.3307 74.9742 8.40233C74.2581 7.80388 74.5185 6.93945 75.2345 6.93945H90.0114C91.5087 6.93945 91.5087 8.06986 90.7926 8.6683C88.0585 10.7961 87.8633 20.3048 87.8633 25.3584Z" fill="#04526A"/>
<path d="M118.459 36.5963C116.115 40.8519 111.363 43.8442 105.895 43.8442C98.0185 43.8442 91.7041 37.8597 91.7041 30.4123C91.7041 22.965 97.9534 16.9805 106.481 16.9805C112.014 16.9805 118.003 20.8371 118.003 25.6247C118.003 30.3458 113.446 34.2025 107.913 34.2025C106.09 34.2025 104.463 33.737 102.966 33.1386C103.682 35.5324 105.244 37.5272 108.043 38.4581C110.647 39.1896 115.009 38.2586 116.962 35.5324C117.678 34.6015 118.914 35.7984 118.459 36.5963ZM102.64 25.9572C102.64 29.8139 104.398 32.2077 106.09 32.2077C107.978 32.2077 109.345 29.2154 109.345 25.6912C109.345 22.034 107.978 19.1083 106.09 19.1083C104.984 19.0418 102.64 21.3026 102.64 25.9572Z" fill="#04526A"/>
<path d="M148.403 21.5688C149.77 28.4842 137.858 30.6785 138.639 25.0265C138.899 23.4306 139.55 21.9677 138.313 21.9677C136.621 21.9677 134.212 24.6275 132.845 27.2873C132.325 35.3331 133.366 40.4531 135.319 41.9825C136.1 42.581 136.1 43.7778 134.603 43.7778H120.737C120.021 43.7778 119.761 42.8469 120.477 42.2485C122.951 40.3866 123.406 38.7908 123.406 36.0645V29.947C123.406 27.2873 122.951 25.6914 120.477 23.6966C119.761 23.0981 120.021 22.2337 120.737 22.2337C127.572 22.2337 130.372 17.5126 133.106 16.9142C134.603 16.6482 133.887 17.7786 133.757 18.7095L133.171 23.4306C134.798 20.9703 138.053 16.8477 141.633 16.8477C144.367 17.0471 147.817 18.5765 148.403 21.5688Z" fill="#04526A"/>
<path d="M184.076 25.3584C184.076 30.4119 184.271 39.9871 187.005 42.0484C187.722 42.6469 187.722 43.8438 186.224 43.8438H171.447C170.731 43.8438 170.471 42.9129 171.187 42.3144C173.661 40.4526 174.181 38.8567 174.181 36.1305V27.0872H163.05C163.115 32.2738 163.636 40.1866 165.979 42.0484C166.761 42.6469 166.76 43.8438 165.263 43.8438H150.486C149.77 43.8438 149.51 42.9129 150.226 42.3144C152.7 40.4526 153.155 38.8567 153.155 36.1305V14.5863C153.155 11.993 152.7 10.3307 150.226 8.40233C149.51 7.80388 149.77 6.93945 150.486 6.93945H165.198C166.695 6.93945 166.695 8.06986 165.914 8.6683C163.375 10.7296 162.985 19.9058 162.985 25.0259H174.116V14.5863C174.116 11.993 173.596 10.3307 171.122 8.40233C170.406 7.80388 170.666 6.93945 171.382 6.93945H186.159C187.656 6.93945 187.656 8.06986 186.94 8.6683C184.337 10.7961 184.076 20.3048 184.076 25.3584Z" fill="#04526A"/>
<path d="M214.671 36.5963C212.327 40.8519 207.575 43.8442 202.107 43.8442C194.23 43.8442 187.916 37.8597 187.916 30.4123C187.916 22.965 194.165 16.9805 202.693 16.9805C208.226 16.9805 214.215 20.8371 214.215 25.6247C214.215 30.3458 209.658 34.2025 204.125 34.2025C202.302 34.2025 200.675 33.737 199.178 33.1386C199.894 35.5324 201.456 37.5272 204.255 38.4581C206.859 39.1896 211.221 38.2586 213.173 35.5324C213.89 34.6015 215.126 35.7984 214.671 36.5963ZM198.852 25.9572C198.852 29.8139 200.61 32.2077 202.302 32.2077C204.19 32.2077 205.557 29.2154 205.557 25.6912C205.557 22.034 204.19 19.1083 202.302 19.1083C201.196 19.0418 198.852 21.3026 198.852 25.9572Z" fill="#04526A"/>
<path d="M244.42 43.8442H237.194C233.354 43.8442 231.857 40.3865 231.857 40.3865C230.294 42.5144 227.755 43.8442 224.891 43.8442C220.139 43.8442 216.233 39.9876 216.233 35.2665C216.233 30.5454 220.139 26.6887 224.891 26.6887C227.755 26.6887 230.294 28.0851 231.857 30.1464V27.9521C231.857 23.763 230.294 18.9754 227.755 18.9754C226.714 18.9754 226.714 20.7042 227.56 22.5661C229.057 26.0903 218.382 27.5532 218.382 23.364C218.382 20.2388 221.962 16.9141 228.472 16.9141C236.088 16.9141 241.816 22.3001 241.816 30.0799V35.9979C241.816 38.6577 242.272 40.2536 244.746 42.1819C245.397 42.9133 245.201 43.8442 244.42 43.8442ZM231.596 35.2665C231.596 32.7397 230.034 30.6119 228.016 30.6119C226.128 30.6119 224.566 32.7397 224.566 35.2665C224.566 37.7933 226.128 39.9211 228.016 39.9211C230.034 39.9211 231.596 37.8598 231.596 35.2665Z" fill="#04526A"/>
<path d="M275.081 21.5688C276.448 28.4842 264.535 30.6785 265.317 25.0265C265.577 23.4306 266.228 21.9677 264.991 21.9677C263.299 21.9677 260.89 24.6275 259.523 27.2873C259.002 35.3331 260.044 40.4531 261.997 41.9825C262.778 42.581 262.778 43.7778 261.281 43.7778H247.415C246.699 43.7778 246.439 42.8469 247.155 42.2485C249.628 40.3866 250.084 38.7908 250.084 36.0645V29.947C250.084 27.2873 249.628 25.6914 247.155 23.6966C246.439 23.0981 246.699 22.2337 247.415 22.2337C254.25 22.2337 257.049 17.5126 259.783 16.9142C261.281 16.6482 260.565 17.7786 260.434 18.7095L259.849 23.4306C261.476 20.9703 264.731 16.8477 268.311 16.8477C271.045 17.0471 274.495 18.5765 275.081 21.5688Z" fill="#04526A"/>
<path d="M295.065 21.9659C295.065 22.8968 294.804 23.6947 293.828 23.6947H290.378C289.922 33.0704 291.224 40.5178 293.177 42.0472C293.893 42.6456 293.958 43.8425 292.396 43.8425H278.075C277.163 43.8425 277.163 42.7121 277.879 42.0472C280.223 39.7864 280.158 34.3338 280.158 31.2751C280.158 29.4132 280.223 26.155 279.246 23.7612H277.684C276.773 23.7612 276.447 22.9633 276.447 22.0324C276.447 21.1015 276.708 20.3035 277.684 20.3035H278.14C284.975 20.3035 286.472 12.5902 289.792 11.3933C291.224 10.7948 291.875 11.9917 291.68 12.9227C291.224 15.4494 290.899 17.9097 290.703 20.3035H293.958C294.804 20.237 295.065 21.035 295.065 21.9659Z" fill="#04526A"/>
<path d="M346.622 30.0795C345.776 37.9923 338.42 43.8438 330.152 43.8438C319.672 43.8438 311.079 35.5985 311.079 25.3584C311.079 15.1847 319.672 6.93945 330.152 6.93945C339.461 6.93945 348.965 15.0518 343.823 22.6986C340.112 28.0846 327.483 30.6779 329.957 21.6347C332.496 12.126 329.827 9.20026 325.856 10.3307C321.69 11.5941 320.193 19.3074 322.796 27.5527C326.963 40.3861 342.26 38.3913 344.474 29.8135C344.929 27.8852 346.817 28.5501 346.622 30.0795Z" fill="#04526A"/>
<path d="M376.436 30.4123C376.436 37.7932 370.122 43.8442 362.31 43.8442C354.433 43.8442 348.119 37.8597 348.119 30.4123C348.119 22.965 354.433 16.9805 362.31 16.9805C370.122 17.047 376.436 23.0315 376.436 30.4123ZM366.346 30.4123C366.346 24.0954 364.523 19.0418 362.31 19.0418C360.032 19.0418 358.209 24.0954 358.209 30.4123C358.209 36.6628 360.032 41.7828 362.31 41.7828C364.458 41.8493 366.346 36.6628 366.346 30.4123Z" fill="#04526A"/>
<path d="M307.369 34.8672C306.327 34.4683 304.635 34.9337 303.984 36.7291C303.333 34.9337 301.64 34.5348 300.599 34.8672C299.557 35.2662 298.581 36.3966 298.711 37.793C298.711 37.8595 298.711 37.9925 298.776 38.1255C298.776 38.1255 298.841 38.3249 298.906 38.5244C299.036 38.7904 299.362 39.5218 300.208 40.1868C300.599 40.5192 301.054 40.7852 301.445 41.1177C301.836 41.4502 302.291 41.7161 302.682 42.0486C303.007 42.3146 303.203 42.5141 303.463 42.8465C303.723 43.2455 303.919 43.578 303.984 43.844C304.049 43.578 304.244 43.2455 304.505 42.8465C304.765 42.5141 304.96 42.3146 305.286 42.0486C305.676 41.7161 306.132 41.4502 306.523 41.1177C306.978 40.8517 307.369 40.5192 307.759 40.1868C308.54 39.5218 308.931 38.7904 309.061 38.5244C309.126 38.3249 309.191 38.1255 309.191 38.1255C309.191 37.9925 309.257 37.8595 309.257 37.793C309.452 36.3301 308.475 35.1997 307.369 34.8672Z" fill="#04526A"/>
</g>
<defs>
<clipPath id="clip0_145_2183">
<rect width="376.314" height="49.9172" fill="white" transform="translate(0.685547)"/>
</clipPath>
</defs>
</svg>
